<mxfile host="app.diagrams.net" modified="2023-09-21T14:32:21.185Z" agent="Mozilla/5.0 (Windows NT 10.0; Win64; x64) AppleWebKit/537.36 (KHTML, like Gecko) Chrome/116.0.0.0 Safari/537.36" etag="OxN0pmYZAMO2oAFYfHJ8" version="21.8.0" type="device">
  <diagram name="PÃ¡gina-1" id="zvqyIeNRFN6A9x6ZSAqa">
    <mxGraphModel dx="1173" dy="642" grid="1" gridSize="10" guides="1" tooltips="1" connect="1" arrows="1" fold="1" page="1" pageScale="1" pageWidth="827" pageHeight="1169" math="0" shadow="0">
      <root>
        <mxCell id="0" />
        <mxCell id="1" parent="0" />
        <mxCell id="9by8FPAijTu88lewyMBd-1" value="Label" style="html=1;whiteSpace=wrap;" vertex="1" parent="1">
          <mxGeometry x="190" width="110" height="50" as="geometry" />
        </mxCell>
        <mxCell id="9by8FPAijTu88lewyMBd-2" value="Program" style="html=1;whiteSpace=wrap;" vertex="1" parent="1">
          <mxGeometry x="10" width="110" height="50" as="geometry" />
        </mxCell>
        <mxCell id="9by8FPAijTu88lewyMBd-4" value="" style="endArrow=open;endFill=1;endSize=12;html=1;rounded=0;exitX=1;exitY=0.608;exitDx=0;exitDy=0;exitPerimeter=0;entryX=0;entryY=0.5;entryDx=0;entryDy=0;" edge="1" parent="1" source="9by8FPAijTu88lewyMBd-2" target="9by8FPAijTu88lewyMBd-1">
          <mxGeometry width="160" relative="1" as="geometry">
            <mxPoint x="270" y="74.5" as="sourcePoint" />
            <mxPoint x="430" y="74.5" as="targetPoint" />
          </mxGeometry>
        </mxCell>
        <mxCell id="9by8FPAijTu88lewyMBd-6" value="read report" style="html=1;whiteSpace=wrap;" vertex="1" parent="1">
          <mxGeometry x="10" y="160" width="110" height="50" as="geometry" />
        </mxCell>
        <mxCell id="9by8FPAijTu88lewyMBd-7" value="pick up lines" style="html=1;whiteSpace=wrap;" vertex="1" parent="1">
          <mxGeometry x="140" y="160" width="110" height="50" as="geometry" />
        </mxCell>
        <mxCell id="9by8FPAijTu88lewyMBd-8" value="formated lines" style="html=1;whiteSpace=wrap;" vertex="1" parent="1">
          <mxGeometry x="270" y="160" width="110" height="50" as="geometry" />
        </mxCell>
        <mxCell id="9by8FPAijTu88lewyMBd-9" value="generate the object" style="html=1;whiteSpace=wrap;" vertex="1" parent="1">
          <mxGeometry x="410" y="160" width="110" height="50" as="geometry" />
        </mxCell>
        <mxCell id="9by8FPAijTu88lewyMBd-10" value="" style="endArrow=open;endFill=1;endSize=12;html=1;rounded=0;exitX=1;exitY=0.5;exitDx=0;exitDy=0;entryX=0;entryY=0.5;entryDx=0;entryDy=0;" edge="1" parent="1" source="9by8FPAijTu88lewyMBd-6" target="9by8FPAijTu88lewyMBd-7">
          <mxGeometry width="160" relative="1" as="geometry">
            <mxPoint x="115" y="240" as="sourcePoint" />
            <mxPoint x="275" y="240" as="targetPoint" />
          </mxGeometry>
        </mxCell>
        <mxCell id="9by8FPAijTu88lewyMBd-11" value="" style="endArrow=open;endFill=1;endSize=12;html=1;rounded=0;exitX=1;exitY=0.5;exitDx=0;exitDy=0;entryX=0;entryY=0.5;entryDx=0;entryDy=0;" edge="1" parent="1" source="9by8FPAijTu88lewyMBd-7" target="9by8FPAijTu88lewyMBd-8">
          <mxGeometry width="160" relative="1" as="geometry">
            <mxPoint x="130" y="195" as="sourcePoint" />
            <mxPoint x="260" y="195" as="targetPoint" />
          </mxGeometry>
        </mxCell>
        <mxCell id="9by8FPAijTu88lewyMBd-12" value="" style="endArrow=open;endFill=1;endSize=12;html=1;rounded=0;exitX=1;exitY=0.5;exitDx=0;exitDy=0;entryX=0;entryY=0.5;entryDx=0;entryDy=0;" edge="1" parent="1" source="9by8FPAijTu88lewyMBd-8" target="9by8FPAijTu88lewyMBd-9">
          <mxGeometry width="160" relative="1" as="geometry">
            <mxPoint x="140" y="205" as="sourcePoint" />
            <mxPoint x="160" y="205" as="targetPoint" />
          </mxGeometry>
        </mxCell>
        <mxCell id="9by8FPAijTu88lewyMBd-13" value="gere o arquivo" style="html=1;whiteSpace=wrap;" vertex="1" parent="1">
          <mxGeometry x="550" y="160" width="110" height="50" as="geometry" />
        </mxCell>
        <mxCell id="9by8FPAijTu88lewyMBd-14" value="" style="endArrow=open;endFill=1;endSize=12;html=1;rounded=0;entryX=0;entryY=0.5;entryDx=0;entryDy=0;" edge="1" parent="1" target="9by8FPAijTu88lewyMBd-13">
          <mxGeometry width="160" relative="1" as="geometry">
            <mxPoint x="520" y="190" as="sourcePoint" />
            <mxPoint x="170" y="215" as="targetPoint" />
          </mxGeometry>
        </mxCell>
        <mxCell id="9by8FPAijTu88lewyMBd-15" value="&lt;p style=&quot;margin:0px;margin-top:4px;text-align:center;&quot;&gt;&lt;b&gt;report&lt;/b&gt;&lt;/p&gt;&lt;hr size=&quot;1&quot;&gt;&lt;p style=&quot;margin:0px;margin-left:4px;&quot;&gt;+ report: String&lt;/p&gt;&lt;hr size=&quot;1&quot;&gt;&lt;p style=&quot;margin:0px;margin-left:4px;&quot;&gt;+ pickupUp(String[]): String[]&lt;/p&gt;&lt;p style=&quot;margin:0px;margin-left:4px;&quot;&gt;+ formatLines(String[]): String[]&lt;/p&gt;&lt;p style=&quot;margin:0px;margin-left:4px;&quot;&gt;+ getSomething(String[]) String[]&lt;/p&gt;" style="verticalAlign=top;align=left;overflow=fill;fontSize=12;fontFamily=Helvetica;html=1;whiteSpace=wrap;" vertex="1" parent="1">
          <mxGeometry x="210" y="310" width="190" height="110" as="geometry" />
        </mxCell>
        <mxCell id="9by8FPAijTu88lewyMBd-16" value="&lt;p style=&quot;margin:0px;margin-top:4px;text-align:center;&quot;&gt;&lt;b&gt;Label&lt;/b&gt;&lt;/p&gt;&lt;hr size=&quot;1&quot;&gt;&lt;p style=&quot;margin:0px;margin-left:4px;&quot;&gt;+ os: String&lt;/p&gt;&lt;p style=&quot;margin:0px;margin-left:4px;&quot;&gt;+typeOS: String&lt;/p&gt;&lt;p style=&quot;margin:0px;margin-left:4px;&quot;&gt;+ mb: String&lt;/p&gt;&lt;p style=&quot;margin:0px;margin-left:4px;&quot;&gt;+ cpu: String&lt;/p&gt;&lt;p style=&quot;margin:0px;margin-left:4px;&quot;&gt;+ ram: String[]&lt;/p&gt;&lt;p style=&quot;margin:0px;margin-left:4px;&quot;&gt;+ disk: Disk[]&lt;/p&gt;&lt;hr size=&quot;1&quot;&gt;&lt;p style=&quot;margin:0px;margin-left:4px;&quot;&gt;+ format(Label): Label&lt;/p&gt;&lt;p style=&quot;margin:0px;margin-left:4px;&quot;&gt;&lt;br&gt;&lt;/p&gt;" style="verticalAlign=top;align=left;overflow=fill;fontSize=12;fontFamily=Helvetica;html=1;whiteSpace=wrap;" vertex="1" parent="1">
          <mxGeometry x="470" y="290" width="180" height="150" as="geometry" />
        </mxCell>
        <mxCell id="9by8FPAijTu88lewyMBd-17" value="" style="endArrow=open;endFill=1;endSize=12;html=1;rounded=0;entryX=0;entryY=0.5;entryDx=0;entryDy=0;exitX=1;exitY=0.5;exitDx=0;exitDy=0;" edge="1" parent="1" source="9by8FPAijTu88lewyMBd-15" target="9by8FPAijTu88lewyMBd-16">
          <mxGeometry width="160" relative="1" as="geometry">
            <mxPoint x="150" y="370" as="sourcePoint" />
            <mxPoint x="310" y="370" as="targetPoint" />
          </mxGeometry>
        </mxCell>
        <mxCell id="9by8FPAijTu88lewyMBd-18" value="&lt;p style=&quot;margin:0px;margin-top:4px;text-align:center;&quot;&gt;&lt;b&gt;&lt;i&gt;ManageFile&lt;/i&gt;&lt;/b&gt;&lt;/p&gt;&lt;hr size=&quot;1&quot;&gt;&lt;p style=&quot;margin:0px;margin-left:4px;&quot;&gt;+ file: File&lt;/p&gt;&lt;hr size=&quot;1&quot;&gt;&lt;p style=&quot;margin:0px;margin-left:4px;&quot;&gt;+ FileToString(File): String&lt;/p&gt;&lt;p style=&quot;margin:0px;margin-left:4px;&quot;&gt;+StringToFile(String):void&lt;/p&gt;" style="verticalAlign=top;align=left;overflow=fill;fontSize=12;fontFamily=Helvetica;html=1;whiteSpace=wrap;" vertex="1" parent="1">
          <mxGeometry x="333" y="490" width="160" height="90" as="geometry" />
        </mxCell>
        <mxCell id="9by8FPAijTu88lewyMBd-22" value="&lt;p style=&quot;margin:0px;margin-top:4px;text-align:center;&quot;&gt;&lt;i&gt;&amp;lt;&amp;lt;Interface&amp;gt;&amp;gt;&lt;/i&gt;&lt;br&gt;&lt;b&gt;Disk&lt;/b&gt;&lt;/p&gt;&lt;hr size=&quot;1&quot;&gt;&lt;p style=&quot;margin:0px;margin-left:4px;&quot;&gt;+ storage: String&lt;br&gt;+ type: String&lt;/p&gt;&lt;hr size=&quot;1&quot;&gt;&lt;p style=&quot;margin:0px;margin-left:4px;&quot;&gt;&lt;br&gt;&lt;/p&gt;" style="verticalAlign=top;align=left;overflow=fill;fontSize=12;fontFamily=Helvetica;html=1;whiteSpace=wrap;" vertex="1" parent="1">
          <mxGeometry x="820" y="280" width="190" height="100" as="geometry" />
        </mxCell>
      </root>
    </mxGraphModel>
  </diagram>
</mxfile>
